<mxfile host="app.diagrams.net" modified="2024-04-12T15:58:01.718Z" agent="Mozilla/5.0 (Macintosh; Intel Mac OS X 10_15_7) AppleWebKit/537.36 (KHTML, like Gecko) Chrome/123.0.0.0 Safari/537.36" version="24.0.7" etag="lB3ZELw888FUwkDwNaJ2" type="github">
  <diagram name="Seite-1" id="6euykztcBiEt6pU-k71E">
    <mxGraphModel>
      <root>
        <mxCell id="0" />
        <mxCell id="1" parent="0" />
      </root>
    </mxGraphModel>
  </diagram>
</mxfile>
